<?xml version="1.0" standalone="no"?>
<!DOCTYPE svg PUBLIC "-//W3C//DTD SVG 20010904//EN"
 "http://www.w3.org/TR/2001/REC-SVG-20010904/DTD/svg10.dtd">
<svg version="1.0" xmlns="http://www.w3.org/2000/svg"
 width="46.000000pt" height="46.000000pt" viewBox="0 0 500.000000 500.000000"
 preserveAspectRatio="xMidYMid meet">
<metadata>
Created by potrace 1.16, written by Peter Selinger 2001-2019
</metadata>
<g transform="translate(0.000000,500.000000) scale(0.100000,-0.100000)"
fill="#000000" stroke="none">
<path d="M2265 3944 c-302 -54 -541 -180 -751 -396 -187 -192 -296 -385 -361
-642 -35 -139 -43 -396 -18 -548 33 -198 114 -400 226 -565 30 -43 101 -126
160 -184 201 -201 434 -326 719 -386 128 -26 401 -24 537 5 170 37 351 112
485 203 31 22 60 39 63 39 3 0 47 -20 98 -45 156 -76 319 -104 480 -82 80 12
76 32 -7 40 -130 12 -274 64 -397 145 l-57 36 75 86 c185 210 282 401 340 670
25 116 25 397 0 523 -55 277 -182 513 -382 712 -128 128 -219 194 -376 270
-199 97 -375 136 -608 134 -80 0 -182 -7 -226 -15z m500 -89 c252 -56 468
-174 654 -357 212 -211 338 -476 372 -785 40 -369 -86 -738 -349 -1023 l-69
-74 -56 49 c-59 52 -887 934 -887 944 0 8 489 573 548 634 56 57 127 94 200
103 115 15 40 24 -193 24 -157 0 -245 -4 -245 -10 0 -5 11 -10 25 -10 26 0 75
-40 75 -60 0 -22 -26 -57 -296 -395 -151 -190 -274 -347 -274 -350 0 -14 821
-880 896 -945 l86 -74 -29 -23 c-40 -33 -205 -116 -289 -146 -139 -50 -266
-71 -429 -71 -167 -1 -254 12 -395 56 -473 150 -815 549 -896 1043 -25 155
-15 365 24 518 33 127 101 281 175 395 190 294 524 509 882 568 103 17 373 11
470 -11z"/>
<path d="M1860 3361 c0 -5 20 -12 45 -15 53 -8 102 -46 121 -93 20 -48 20
-1358 0 -1406 -19 -47 -68 -85 -121 -93 -105 -15 -29 -24 210 -24 239 0 315 9
210 24 -53 8 -102 46 -121 93 -20 48 -20 1358 0 1406 19 47 68 85 121 93 105
15 29 24 -210 24 -142 0 -255 -4 -255 -9z"/>
</g>
</svg>
