<?xml version="1.0" standalone="no"?>
<!DOCTYPE svg PUBLIC "-//W3C//DTD SVG 20010904//EN"
 "http://www.w3.org/TR/2001/REC-SVG-20010904/DTD/svg10.dtd">
<svg version="1.0" xmlns="http://www.w3.org/2000/svg"
 width="150.000000pt" height="90.000000pt" viewBox="0 0 500.000000 500.000000"
 preserveAspectRatio="xMidYMid meet">
<metadata>
Created by potrace 1.16, written by Peter Selinger 2001-2019
</metadata>
<g transform="translate(0.000000,500.000000) scale(0.100000,-0.100000)"
fill="#000000" stroke="none">
<path d="M2920 3258 c0 -9 -22 -13 -74 -13 -162 -1 -292 -116 -341 -301 -21
-80 -21 -247 0 -322 36 -123 108 -211 214 -261 47 -22 69 -26 138 -25 71 0 90
5 145 32 35 18 75 42 91 55 l27 23 -52 138 c-49 132 -52 138 -67 118 -9 -11
-28 -36 -44 -56 -37 -48 -95 -66 -132 -42 -52 34 -77 154 -55 261 28 134 130
154 221 44 l26 -32 55 149 56 149 -100 48 c-56 26 -102 47 -104 47 -2 0 -4 -6
-4 -12z m-11 -54 c7 -2 20 1 27 7 10 8 29 4 79 -19 36 -17 65 -35 65 -40 0 -5
-16 -53 -36 -105 l-36 -95 -49 30 c-42 26 -55 30 -99 26 -35 -4 -59 -13 -76
-29 -75 -71 -69 -332 10 -398 8 -7 33 -15 54 -18 46 -6 110 22 139 63 l19 26
37 -98 c42 -113 45 -104 -61 -156 -119 -58 -239 -38 -340 56 -89 83 -127 200
-119 361 8 159 64 278 164 349 62 43 157 60 222 40z"/>
<path d="M2167 3236 c-5 -12 -21 -13 -81 -9 -58 5 -86 2 -121 -12 -101 -38
-155 -121 -155 -235 1 -122 44 -178 204 -262 105 -55 127 -79 106 -118 -11
-20 -18 -22 -74 -18 -41 2 -81 13 -116 30 -30 15 -56 25 -58 23 -5 -4 -52
-186 -52 -201 0 -12 93 -56 155 -73 59 -16 165 -13 220 6 103 35 175 142 175
261 0 119 -50 194 -172 257 -96 50 -138 82 -138 105 0 46 107 55 185 15 32
-16 51 -21 56 -14 10 17 52 210 46 215 -6 6 -146 44 -163 44 -7 0 -14 -6 -17
-14z"/>
<path d="M330 3123 c-12 -54 -24 -106 -26 -115 -4 -14 1 -18 20 -18 l26 0 0
-315 0 -315 115 0 115 0 2 162 3 163 69 -163 69 -162 124 0 c67 0 123 3 123 6
0 3 -45 102 -99 221 l-100 214 81 187 c44 103 84 197 89 210 l9 22 -119 0
-118 0 -64 -162 -64 -162 -3 162 -2 162 -114 0 -114 0 -22 -97z"/>
<path d="M988 3108 l-24 -113 23 -3 23 -3 0 -315 0 -314 115 0 115 0 0 235 c0
129 3 235 8 235 4 0 31 -41 61 -90 29 -50 56 -88 60 -85 5 2 32 44 62 92 l54
88 3 -237 2 -238 115 0 115 0 0 430 0 431 -117 -3 -117 -3 -59 -98 -59 -99
-62 101 -61 101 -116 0 -116 0 -25 -112z"/>
<path d="M4330 3009 c-129 -26 -204 -162 -160 -293 13 -40 70 -96 130 -126 22
-11 38 -25 35 -30 -8 -12 -61 5 -106 35 l-38 25 -10 -38 c-5 -20 -18 -74 -29
-120 l-19 -83 34 -14 c53 -23 160 -38 215 -32 105 13 191 87 208 179 19 99
-19 175 -117 235 -92 56 -78 71 20 21 22 -11 40 -18 42 -16 3 4 45 195 45 207
0 13 -108 49 -160 55 -25 2 -65 0 -90 -5z m163 -45 c52 -18 51 -15 33 -99 -9
-43 -17 -59 -27 -56 -8 2 -31 9 -52 15 -45 12 -72 0 -72 -34 0 -17 16 -33 69
-65 83 -50 116 -98 116 -168 0 -131 -120 -212 -277 -187 -32 5 -70 15 -84 20
l-26 11 18 76 c10 41 20 77 23 80 2 2 22 -5 45 -16 47 -25 84 -27 101 -6 22
27 2 59 -62 100 -35 22 -73 56 -86 75 -34 49 -27 143 13 196 53 69 165 93 268
58z"/>
<path d="M3311 2999 c-32 -8 -58 -25 -97 -64 -67 -66 -88 -130 -88 -260 0
-118 23 -191 80 -254 46 -51 79 -65 182 -75 48 -5 54 -3 62 17 l9 22 0 -22 c1
-23 3 -23 119 -23 l119 0 23 107 c12 60 25 114 27 120 3 9 -4 13 -21 13 l-26
0 0 210 0 211 -127 -1 c-71 -1 -148 1 -173 4 -25 3 -65 0 -89 -5z m146 -44
c19 -8 37 -15 39 -15 2 0 4 7 4 15 0 12 16 15 85 15 l85 0 0 -210 c0 -200 1
-210 19 -210 21 0 21 6 -14 -147 -5 -22 -10 -23 -95 -23 l-90 0 0 179 c0 99
-4 191 -10 205 -23 61 -99 56 -126 -9 -39 -93 2 -205 75 -205 25 0 25 0 4 -96
l-17 -76 -57 5 c-67 6 -103 25 -142 75 -77 100 -79 318 -4 432 47 71 159 100
244 65z"/>
<path d="M4074 3001 c-17 -4 -36 -11 -42 -15 -7 -4 -12 -2 -12 3 0 7 -43 11
-123 11 l-124 0 -23 -107 c-12 -60 -25 -114 -27 -120 -3 -9 4 -13 21 -13 l26
0 0 -210 0 -210 125 0 125 0 0 199 c0 168 2 202 16 215 18 19 28 20 54 6 22
-12 24 -5 56 148 15 72 16 85 3 93 -16 10 -31 10 -75 0z m-92 -78 l3 -47 25
37 c26 38 57 57 92 57 22 0 22 -2 -4 -122 -9 -43 -12 -48 -37 -48 -67 0 -80
-42 -81 -267 l0 -153 -85 0 -85 0 0 205 0 205 -24 0 -24 0 19 83 c10 45 19 85
19 90 0 4 40 7 89 7 l90 0 3 -47z"/>
</g>
</svg>
